<?xml version="1.0" encoding="utf-8"?>
<!-- Svg Vector Icons : http://www.onlinewebfonts.com/icon -->
<!DOCTYPE svg PUBLIC "-//W3C//DTD SVG 1.1//EN" "http://www.w3.org/Graphics/SVG/1.1/DTD/svg11.dtd">
<svg version="1.1" xmlns="http://www.w3.org/2000/svg" xmlns:xlink="http://www.w3.org/1999/xlink" x="0px" y="0px" viewBox="0 0 256 256" enable-background="new 0 0 256 256" xml:space="preserve">
<metadata> Svg Vector Icons : http://www.onlinewebfonts.com/icon </metadata>
<g><g><g><path fill="#000000" d="M53.5,2.6l-1.4,1.4l0,11.6v11.5l-2.3,1.5c-4.5,2.9-6.7,7.9-5.6,12.9c1.2,6,6.2,10.1,12.2,10.1c8.8,0,14.6-8,12.1-16.4c-0.7-2.4-4.3-6.4-6.3-7.3l-1.5-0.6V15.5V3.6l-1.3-1.2C57.4,0.7,55.3,0.8,53.5,2.6z M59,36.2c3,2.5,1.3,7.1-2.7,7.1c-4.3,0-5.6-5.8-1.7-7.8C56.4,34.6,57.3,34.7,59,36.2z"/><path fill="#000000" d="M95.8,2.4l-1.4,1.2l-0.1,11.8l-0.1,11.8l-2.2,1.3c-5.5,3.4-7.6,10.5-4.7,16.3c2.8,5.6,9.1,8.2,15.5,6.3c2.7-0.8,6.8-4.9,7.6-7.6c1.8-6.2-0.5-12.4-5.6-15.1l-2.2-1.2V15.4V3.6l-1.2-1.2C99.8,0.8,97.6,0.8,95.8,2.4z M100.6,35.6c1.6,0.8,2,1.6,2,4c0,3.3-4.6,5-6.8,2.6c-1.5-1.6-1.8-3.1-0.9-4.8C96.1,35,98.2,34.4,100.6,35.6z"/><path fill="#000000" d="M138,2.4l-1.2,1.2v11.6v11.6l-2.8,1.9c-3.9,2.6-5.6,5.8-5.6,10.5c0,4,1.2,6.7,4.1,9.3c2.7,2.4,4.7,3.2,8.4,3.2c3.8,0,6.4-1.1,8.9-3.8c2.5-2.6,3.5-5.3,3.5-9c0-4.1-1.9-7.6-5.4-10l-2.4-1.7l-0.2-11.9l-0.2-11.9l-1.4-1.2C141.7,0.8,139.5,0.8,138,2.4z M142.7,35.6c1.5,0.7,2.7,3.2,2.2,4.6c-1.6,4.6-8.1,3.9-8.1-0.9c0-1.9,0.6-3,2.2-3.9C140.3,34.7,141,34.7,142.7,35.6z"/><path fill="#000000" d="M180.1,2.4l-1.2,1.2v11.8v11.9l-1.5,0.6c-2,0.8-4.9,3.8-6,6.1c-1.3,2.9-1.2,7.3,0.2,10.5c4.2,9,16.9,9.7,21.9,1.2c0.9-1.5,1.7-3.6,1.9-4.8c0.7-4.7-1.8-10-6-12.5l-2.2-1.3l0-11.5V4.1l-1.4-1.4C184,0.8,181.8,0.7,180.1,2.4z M185.9,36.2c1.8,1.7,1.6,4.9-0.5,6.5c-2.4,1.9-6.5-0.3-6.5-3.4C178.9,35.5,183.1,33.7,185.9,36.2z"/><path fill="#000000" d="M26.3,18.8c-7.2,1.9-13.6,8.4-15.6,15.7C10,37.4,9.9,45.6,10.1,138l0.1,100.3L12,242c2.3,4.7,6.4,8.8,11.1,11l3.4,1.6l57.8,0.1l57.8,0.1l1.3-1.1c1.7-1.4,1.8-4.4,0.3-6l-1.1-1l-57.3-0.2L28,246.1l-2.2-1.3c-2.3-1.4-4.3-3.2-5.7-5.5l-0.8-1.3h60.9c39.2,0,61.4-0.2,62.3-0.5c1.7-0.6,2.9-3.4,2.3-5.2c-1.1-3,3.1-2.8-64.5-2.8H18.4v-4.2v-4.2h61.4c67.5,0,63.7,0.2,64.8-3c0.6-1.7,0.4-2.8-1-4.3l-1-1.1H80.5H18.4l0.1-88.3l0.1-88.3l1.3-2.3c0.8-1.2,2.3-3.1,3.4-4.1c3-2.6,5.6-3.3,12.2-3.3c5.3,0,5.7,0,6.8-1.2c2.1-2,1.5-5.2-1.1-6.6C39.8,17.8,29.6,17.9,26.3,18.8z"/><path fill="#000000" d="M70.7,19.1c-2,1.7-2.1,3.9-0.5,5.7l1.3,1.6h5.9c5.6,0,6,0,7.1-1.2c1.2-1.2,1.6-3.2,0.9-5c-0.6-1.6-2.9-2.2-8.3-2.2C72.4,18,71.8,18.1,70.7,19.1z"/><path fill="#000000" d="M113.3,18.6c-1.4,0.8-2.4,3.6-1.9,5.1c0.9,2.3,2.3,2.8,8.3,2.8c6,0,7.8-0.6,8.2-3.2c0.3-1.8-0.8-4.2-2.3-4.8C123.9,17.9,114.5,17.9,113.3,18.6z"/><path fill="#000000" d="M155.7,18.5c-2.4,0.9-2.9,4.7-0.9,6.7c1.1,1.2,1.5,1.2,6.9,1.2c5.3,0,5.8-0.1,7-1.2c1-0.9,1.4-1.6,1.4-3c0-1.4-0.3-2.1-1.4-3c-1.2-1.1-1.7-1.2-6.6-1.1C159.2,18.1,156.3,18.3,155.7,18.5z"/><path fill="#000000" d="M197.9,18.6c-2.5,1.4-3,4.6-1,6.6c1.1,1.2,1.5,1.2,6.8,1.2c7.2,0,9.6,0.7,13,4.2c4.5,4.5,4.2-0.3,4.2,63.5c0,56,0,56.1,1,57.4c1.4,1.8,4.4,1.8,6.1,0l1.2-1.2V93.7c0-50.2-0.1-57-0.8-59.3c-2.1-7.2-7.9-13.1-15.1-15.4C210,17.9,199.6,17.6,197.9,18.6z"/><path fill="#000000" d="M53.6,78.5c-1.3,1.3-1.7,3.2-0.9,4.8c1,2.3,2.5,2.7,8.4,2.6c4.8-0.1,5.4-0.2,6.5-1.3c1.6-1.5,1.7-3.9,0.2-5.7c-1-1.3-1.1-1.3-7.2-1.3C55.2,77.5,54.4,77.6,53.6,78.5z"/><path fill="#000000" d="M87.7,78c-1.4,0.8-2.1,3.3-1.4,5c1.3,3.1-0.7,3,46.1,3c46.8,0,44.8,0.1,46.1-3c0.7-1.7,0-4.2-1.5-5C175.7,77.3,88.8,77.3,87.7,78z"/><path fill="#000000" d="M54,103.4c-2.3,1.7-2.5,4.4-0.5,6.3c1.4,1.4,1.6,1.4,6.7,1.4c6.8,0,8.6-0.9,8.7-4.4c0-1.1-0.4-2-1.2-2.8c-1.1-1.2-1.5-1.2-7-1.2C56.8,102.8,54.5,103,54,103.4z"/><path fill="#000000" d="M87.2,104c-1.7,1.8-1.6,4.5,0.2,6l1.3,1.2h39.3h39.3l1.3-1.2c1.8-1.5,1.9-4.2,0.2-6l-1.1-1.2h-39.7H88.4L87.2,104z"/><path fill="#000000" d="M53.5,129.4c-0.8,0.9-1.4,2-1.4,2.8s0.6,1.9,1.4,2.8c1.4,1.4,1.5,1.4,7.2,1.4c5.4,0,5.8,0,6.9-1.2c1.7-1.6,1.7-4.3,0-5.9c-1.1-1.2-1.5-1.2-6.9-1.2C55,128,54.9,128,53.5,129.4z"/><path fill="#000000" d="M87.4,129.2c-1,0.9-1.4,1.6-1.4,3c0,1.4,0.3,2.1,1.4,3l1.3,1.2h47.8h47.9l1.4-1.4c1.9-1.9,1.9-3.7,0-5.5l-1.4-1.4h-47.9H88.8L87.4,129.2z"/><path fill="#000000" d="M53.5,154.7c-1.5,1.5-1.8,2.9-0.8,4.7c1.1,2.1,1.9,2.3,8,2.3c5.5,0,5.9,0,7-1.2c0.8-0.8,1.2-1.7,1.2-2.8c0-3.5-1.9-4.4-8.7-4.4C55.1,153.3,54.9,153.3,53.5,154.7z"/><path fill="#000000" d="M88.2,153.9c-2.6,1.3-3,4.4-0.9,6.6l1,1.1h44h43.9l1.3-1.6c1.6-1.9,1.4-4-0.5-5.7l-1.2-1.1h-43.2C99,153.3,89.2,153.4,88.2,153.9z"/><path fill="#000000" d="M215,163.4c-2.3,1.1-7.3,5.9-32,30.6l-29.4,29.3v14.5v14.5l1.2,1.2l1.2,1.2h14.3h14.3l29.5-29.6c23.3-23.3,29.8-30.1,30.7-32c0.9-2,1.2-3.3,1.2-6.4c0-5.6-1.3-7.8-8.8-15.4c-7.4-7.6-9.5-8.8-15.3-9C218.3,162.1,217.4,162.3,215,163.4z M223.2,170.6c1.4,0.4,3.3,1.9,6.9,5.3c9.5,9.2,9.9,11.6,3.1,18.4l-3.2,3.2l-9.7-9.7l-9.7-9.7l3.9-3.8c2.2-2.1,4.5-3.9,5.1-4c0.6-0.1,1.3-0.2,1.4-0.3C221.1,170.2,222.1,170.4,223.2,170.6z M208.1,187.7l3.2,3.2l-18.5,18.5l-18.4,18.4l-3.3-3.4l-3.4-3.3l18.3-18.3c10.1-10.1,18.4-18.3,18.6-18.3S206.4,185.9,208.1,187.7z M220.6,200.2c1.5,1.6,2.8,3.1,2.8,3.3c0,0.3-8.2,8.7-18.2,18.7L187,240.4l-3.1-3.1c-1.7-1.7-3.1-3.3-3.1-3.6c0-0.6,35.8-36.4,36.4-36.4C217.6,197.3,219,198.6,220.6,200.2z M171.7,237l9.4,9.4h-9.6H162V237c0-5.2,0-9.4,0.1-9.4C162.2,227.6,166.5,231.8,171.7,237z"/><path fill="#000000" d="M54.5,179.1c-1.6,0.9-2.6,3-2.2,4.9c0.5,2.6,1.8,3,8.5,3c5.9,0,6.1,0,7.1-1.3c1.4-1.8,1.3-4.2-0.2-5.7c-1.1-1.1-1.7-1.2-6.5-1.3C57.4,178.5,55.4,178.7,54.5,179.1z"/><path fill="#000000" d="M88.2,179.3c-1.9,1-2.7,3.3-1.9,5.2c0.3,0.8,1,1.7,1.5,2c1.2,0.7,62.6,0.6,63.8,0c2.4-1.3,2.1-5.8-0.5-7.2C149.1,178.2,90.2,178.2,88.2,179.3z"/></g></g></g>
</svg>